<mxfile host="app.diagrams.net" modified="2024-03-11T07:30:57.644Z" agent="Mozilla/5.0 (Windows NT 10.0; Win64; x64) AppleWebKit/537.36 (KHTML, like Gecko) Chrome/122.0.0.0 Safari/537.36" etag="OgtAWgr5Nf6xqcvwqr-L" version="24.0.4" type="github">
  <diagram name="第 1 页" id="xjvgqZ8mr5HieyIfKpp5">
    <mxGraphModel dx="784" dy="739" grid="1" gridSize="10" guides="1" tooltips="1" connect="1" arrows="1" fold="1" page="1" pageScale="1" pageWidth="827" pageHeight="1169" math="0" shadow="0">
      <root>
        <mxCell id="0" />
        <mxCell id="1" parent="0" />
        <mxCell id="lvuPCobeHA_lXGW6kFnT-3" style="edgeStyle=orthogonalEdgeStyle;rounded=0;orthogonalLoop=1;jettySize=auto;html=1;entryX=0;entryY=0.5;entryDx=0;entryDy=0;" edge="1" parent="1" source="lvuPCobeHA_lXGW6kFnT-1" target="lvuPCobeHA_lXGW6kFnT-2">
          <mxGeometry relative="1" as="geometry" />
        </mxCell>
        <mxCell id="lvuPCobeHA_lXGW6kFnT-1" value="NonfairSync#lock" style="rounded=1;whiteSpace=wrap;html=1;fillColor=#dae8fc;strokeColor=#6c8ebf;" vertex="1" parent="1">
          <mxGeometry x="210" y="160" width="130" height="40" as="geometry" />
        </mxCell>
        <mxCell id="lvuPCobeHA_lXGW6kFnT-5" style="edgeStyle=orthogonalEdgeStyle;rounded=0;orthogonalLoop=1;jettySize=auto;html=1;" edge="1" parent="1" source="lvuPCobeHA_lXGW6kFnT-2" target="lvuPCobeHA_lXGW6kFnT-4">
          <mxGeometry relative="1" as="geometry" />
        </mxCell>
        <mxCell id="lvuPCobeHA_lXGW6kFnT-6" value="true" style="edgeLabel;html=1;align=center;verticalAlign=middle;resizable=0;points=[];" vertex="1" connectable="0" parent="lvuPCobeHA_lXGW6kFnT-5">
          <mxGeometry x="-0.1249" y="2" relative="1" as="geometry">
            <mxPoint x="-2" as="offset" />
          </mxGeometry>
        </mxCell>
        <mxCell id="lvuPCobeHA_lXGW6kFnT-8" style="edgeStyle=orthogonalEdgeStyle;rounded=0;orthogonalLoop=1;jettySize=auto;html=1;" edge="1" parent="1" source="lvuPCobeHA_lXGW6kFnT-2" target="lvuPCobeHA_lXGW6kFnT-7">
          <mxGeometry relative="1" as="geometry" />
        </mxCell>
        <mxCell id="lvuPCobeHA_lXGW6kFnT-9" value="否" style="edgeLabel;html=1;align=center;verticalAlign=middle;resizable=0;points=[];" vertex="1" connectable="0" parent="lvuPCobeHA_lXGW6kFnT-8">
          <mxGeometry x="-0.1911" y="-2" relative="1" as="geometry">
            <mxPoint as="offset" />
          </mxGeometry>
        </mxCell>
        <mxCell id="lvuPCobeHA_lXGW6kFnT-2" value="CAS 修改 state 成功？" style="rhombus;whiteSpace=wrap;html=1;fillColor=#fff2cc;strokeColor=#d6b656;" vertex="1" parent="1">
          <mxGeometry x="400" y="140" width="150" height="80" as="geometry" />
        </mxCell>
        <mxCell id="lvuPCobeHA_lXGW6kFnT-18" style="edgeStyle=orthogonalEdgeStyle;rounded=0;orthogonalLoop=1;jettySize=auto;html=1;" edge="1" parent="1" source="lvuPCobeHA_lXGW6kFnT-4" target="lvuPCobeHA_lXGW6kFnT-17">
          <mxGeometry relative="1" as="geometry" />
        </mxCell>
        <mxCell id="lvuPCobeHA_lXGW6kFnT-4" value="当前线程设置为&lt;div&gt;exclusiveOwnerThread&lt;/div&gt;" style="rounded=1;whiteSpace=wrap;html=1;fillColor=#d5e8d4;strokeColor=#82b366;" vertex="1" parent="1">
          <mxGeometry x="408" y="310" width="135" height="60" as="geometry" />
        </mxCell>
        <mxCell id="lvuPCobeHA_lXGW6kFnT-11" value="" style="edgeStyle=orthogonalEdgeStyle;rounded=0;orthogonalLoop=1;jettySize=auto;html=1;" edge="1" parent="1" source="lvuPCobeHA_lXGW6kFnT-7" target="lvuPCobeHA_lXGW6kFnT-10">
          <mxGeometry relative="1" as="geometry" />
        </mxCell>
        <mxCell id="lvuPCobeHA_lXGW6kFnT-7" value="AQS#acquire" style="rounded=1;whiteSpace=wrap;html=1;fillColor=#dae8fc;strokeColor=#6c8ebf;" vertex="1" parent="1">
          <mxGeometry x="640" y="150" width="120" height="60" as="geometry" />
        </mxCell>
        <mxCell id="lvuPCobeHA_lXGW6kFnT-22" style="edgeStyle=orthogonalEdgeStyle;rounded=0;orthogonalLoop=1;jettySize=auto;html=1;entryX=0.5;entryY=0;entryDx=0;entryDy=0;" edge="1" parent="1" source="lvuPCobeHA_lXGW6kFnT-10" target="lvuPCobeHA_lXGW6kFnT-12">
          <mxGeometry relative="1" as="geometry" />
        </mxCell>
        <mxCell id="lvuPCobeHA_lXGW6kFnT-10" value="tryAcquire&amp;nbsp;&lt;span style=&quot;background-color: initial;&quot;&gt;调用&lt;/span&gt;&lt;div&gt;nonfairTryAcquire&lt;br&gt;&lt;/div&gt;" style="whiteSpace=wrap;html=1;rounded=1;fillColor=#e1d5e7;strokeColor=#9673a6;" vertex="1" parent="1">
          <mxGeometry x="640" y="290" width="120" height="60" as="geometry" />
        </mxCell>
        <mxCell id="lvuPCobeHA_lXGW6kFnT-14" value="" style="edgeStyle=orthogonalEdgeStyle;rounded=0;orthogonalLoop=1;jettySize=auto;html=1;" edge="1" parent="1" source="lvuPCobeHA_lXGW6kFnT-12" target="lvuPCobeHA_lXGW6kFnT-13">
          <mxGeometry relative="1" as="geometry" />
        </mxCell>
        <mxCell id="lvuPCobeHA_lXGW6kFnT-15" value="true" style="edgeLabel;html=1;align=center;verticalAlign=middle;resizable=0;points=[];fontStyle=1" vertex="1" connectable="0" parent="lvuPCobeHA_lXGW6kFnT-14">
          <mxGeometry x="-0.0533" y="-2" relative="1" as="geometry">
            <mxPoint as="offset" />
          </mxGeometry>
        </mxCell>
        <mxCell id="lvuPCobeHA_lXGW6kFnT-23" style="edgeStyle=orthogonalEdgeStyle;rounded=0;orthogonalLoop=1;jettySize=auto;html=1;entryX=0.5;entryY=0;entryDx=0;entryDy=0;" edge="1" parent="1" source="lvuPCobeHA_lXGW6kFnT-12" target="lvuPCobeHA_lXGW6kFnT-26">
          <mxGeometry relative="1" as="geometry">
            <mxPoint x="850" y="440" as="targetPoint" />
          </mxGeometry>
        </mxCell>
        <mxCell id="lvuPCobeHA_lXGW6kFnT-25" value="false" style="edgeLabel;html=1;align=center;verticalAlign=middle;resizable=0;points=[];fontStyle=1" vertex="1" connectable="0" parent="lvuPCobeHA_lXGW6kFnT-23">
          <mxGeometry x="-0.069" y="-1" relative="1" as="geometry">
            <mxPoint as="offset" />
          </mxGeometry>
        </mxCell>
        <mxCell id="lvuPCobeHA_lXGW6kFnT-12" value="state == 0？" style="rhombus;whiteSpace=wrap;html=1;fillColor=#fff2cc;strokeColor=#d6b656;" vertex="1" parent="1">
          <mxGeometry x="635" y="400" width="130" height="80" as="geometry" />
        </mxCell>
        <mxCell id="lvuPCobeHA_lXGW6kFnT-30" style="edgeStyle=orthogonalEdgeStyle;rounded=0;orthogonalLoop=1;jettySize=auto;html=1;" edge="1" parent="1" source="lvuPCobeHA_lXGW6kFnT-13" target="lvuPCobeHA_lXGW6kFnT-17">
          <mxGeometry relative="1" as="geometry" />
        </mxCell>
        <mxCell id="lvuPCobeHA_lXGW6kFnT-31" value="成功" style="edgeLabel;html=1;align=center;verticalAlign=middle;resizable=0;points=[];" vertex="1" connectable="0" parent="lvuPCobeHA_lXGW6kFnT-30">
          <mxGeometry x="-0.5861" y="-4" relative="1" as="geometry">
            <mxPoint as="offset" />
          </mxGeometry>
        </mxCell>
        <mxCell id="lvuPCobeHA_lXGW6kFnT-38" style="edgeStyle=orthogonalEdgeStyle;rounded=0;orthogonalLoop=1;jettySize=auto;html=1;dashed=1;strokeColor=#FF3333;strokeWidth=2;" edge="1" parent="1" source="lvuPCobeHA_lXGW6kFnT-13" target="lvuPCobeHA_lXGW6kFnT-39">
          <mxGeometry relative="1" as="geometry">
            <mxPoint x="510" y="780" as="targetPoint" />
          </mxGeometry>
        </mxCell>
        <mxCell id="lvuPCobeHA_lXGW6kFnT-42" value="失败" style="edgeLabel;html=1;align=center;verticalAlign=middle;resizable=0;points=[];" vertex="1" connectable="0" parent="lvuPCobeHA_lXGW6kFnT-38">
          <mxGeometry x="-0.6028" y="1" relative="1" as="geometry">
            <mxPoint as="offset" />
          </mxGeometry>
        </mxCell>
        <mxCell id="lvuPCobeHA_lXGW6kFnT-13" value="CAS修改state为1" style="whiteSpace=wrap;html=1;fillColor=#d5e8d4;strokeColor=#82b366;" vertex="1" parent="1">
          <mxGeometry x="450" y="410" width="120" height="60" as="geometry" />
        </mxCell>
        <mxCell id="lvuPCobeHA_lXGW6kFnT-17" value="加锁成功" style="ellipse;whiteSpace=wrap;html=1;fillColor=#f5f5f5;fontColor=#333333;strokeColor=#666666;" vertex="1" parent="1">
          <mxGeometry x="280" y="560" width="120" height="80" as="geometry" />
        </mxCell>
        <mxCell id="lvuPCobeHA_lXGW6kFnT-28" value="" style="edgeStyle=orthogonalEdgeStyle;rounded=0;orthogonalLoop=1;jettySize=auto;html=1;" edge="1" parent="1" source="lvuPCobeHA_lXGW6kFnT-26" target="lvuPCobeHA_lXGW6kFnT-27">
          <mxGeometry relative="1" as="geometry" />
        </mxCell>
        <mxCell id="lvuPCobeHA_lXGW6kFnT-29" value="true" style="edgeLabel;html=1;align=center;verticalAlign=middle;resizable=0;points=[];" vertex="1" connectable="0" parent="lvuPCobeHA_lXGW6kFnT-28">
          <mxGeometry x="-0.2533" relative="1" as="geometry">
            <mxPoint as="offset" />
          </mxGeometry>
        </mxCell>
        <mxCell id="lvuPCobeHA_lXGW6kFnT-40" style="edgeStyle=orthogonalEdgeStyle;rounded=0;orthogonalLoop=1;jettySize=auto;html=1;strokeColor=#FF3333;dashed=1;strokeWidth=2;" edge="1" parent="1" source="lvuPCobeHA_lXGW6kFnT-26" target="lvuPCobeHA_lXGW6kFnT-39">
          <mxGeometry relative="1" as="geometry">
            <Array as="points">
              <mxPoint x="550" y="580" />
            </Array>
          </mxGeometry>
        </mxCell>
        <mxCell id="lvuPCobeHA_lXGW6kFnT-41" value="false" style="edgeLabel;html=1;align=center;verticalAlign=middle;resizable=0;points=[];fontStyle=1" vertex="1" connectable="0" parent="lvuPCobeHA_lXGW6kFnT-40">
          <mxGeometry x="-0.6395" relative="1" as="geometry">
            <mxPoint as="offset" />
          </mxGeometry>
        </mxCell>
        <mxCell id="lvuPCobeHA_lXGW6kFnT-26" value="锁持有者为&lt;div&gt;当前线程？&lt;/div&gt;" style="rhombus;whiteSpace=wrap;html=1;fillColor=#fff2cc;strokeColor=#d6b656;" vertex="1" parent="1">
          <mxGeometry x="635" y="540" width="130" height="80" as="geometry" />
        </mxCell>
        <mxCell id="lvuPCobeHA_lXGW6kFnT-32" style="edgeStyle=orthogonalEdgeStyle;rounded=0;orthogonalLoop=1;jettySize=auto;html=1;entryX=1;entryY=0.5;entryDx=0;entryDy=0;" edge="1" parent="1" source="lvuPCobeHA_lXGW6kFnT-27" target="lvuPCobeHA_lXGW6kFnT-17">
          <mxGeometry relative="1" as="geometry" />
        </mxCell>
        <mxCell id="lvuPCobeHA_lXGW6kFnT-27" value="state累加后更新" style="whiteSpace=wrap;html=1;fillColor=#d5e8d4;strokeColor=#82b366;" vertex="1" parent="1">
          <mxGeometry x="640" y="690" width="120" height="60" as="geometry" />
        </mxCell>
        <mxCell id="lvuPCobeHA_lXGW6kFnT-44" style="edgeStyle=orthogonalEdgeStyle;rounded=0;orthogonalLoop=1;jettySize=auto;html=1;entryX=0.5;entryY=0;entryDx=0;entryDy=0;" edge="1" parent="1" source="lvuPCobeHA_lXGW6kFnT-39" target="lvuPCobeHA_lXGW6kFnT-43">
          <mxGeometry relative="1" as="geometry" />
        </mxCell>
        <mxCell id="lvuPCobeHA_lXGW6kFnT-39" value="加锁成功" style="ellipse;whiteSpace=wrap;html=1;fillColor=#f5f5f5;fontColor=#333333;strokeColor=#666666;" vertex="1" parent="1">
          <mxGeometry x="450" y="760" width="120" height="80" as="geometry" />
        </mxCell>
        <mxCell id="lvuPCobeHA_lXGW6kFnT-43" value="&lt;div&gt;addWaiter&lt;/div&gt;acquireQueued" style="rounded=1;whiteSpace=wrap;html=1;fillColor=#e1d5e7;strokeColor=#9673a6;" vertex="1" parent="1">
          <mxGeometry x="450" y="870" width="120" height="60" as="geometry" />
        </mxCell>
      </root>
    </mxGraphModel>
  </diagram>
</mxfile>
